HIERARCHY
ROOT Hips
{
	OFFSET 0.00 0.00 0.00
	CHANNELS 6 Xposition Yposition Zposition Xrotation Yrotation Zrotation
	JOINT Spine
	{
		OFFSET 0.00000 1.70439 2.55658
		CHANNELS 3 Xrotation Yrotation Zrotation
		JOINT Spine1
		{
			OFFSET 0.00000 0.59193 3.35699
			CHANNELS 3 Xrotation Yrotation Zrotation
			JOINT Spine2
			{
				OFFSET 0.00000 0.29710 3.39581
				CHANNELS 3 Xrotation Yrotation Zrotation
				JOINT Spine3
				{
					OFFSET 0.00000 0.00000 3.40878
					CHANNELS 3 Xrotation Yrotation Zrotation
					JOINT Neck
					{
						OFFSET 0.00000 -1.27828 8.94804
						CHANNELS 3 Xrotation Yrotation Zrotation
						JOINT Head
						{
							OFFSET 0.00000 -0.81390 4.61586
							CHANNELS 3 Xrotation Yrotation Zrotation
							End Site
							{
								OFFSET 0.00000 0.00001 5.51796
							}
						}
					}
					JOINT RightShoulder
					{
						OFFSET -1.18875 -1.98124 6.41925
						CHANNELS 3 Xrotation Yrotation Zrotation
						JOINT RightArm
						{
							OFFSET -5.90412 0.00000 0.00000
							CHANNELS 3 Xrotation Yrotation Zrotation
							JOINT RightForeArm
							{
								OFFSET -11.94674 0.00000 0.00000
								CHANNELS 3 Xrotation Yrotation Zrotation
								JOINT RightHand
								{
									OFFSET -10.17720 0.00000 0.00000
									CHANNELS 3 Xrotation Yrotation Zrotation
									JOINT RightHandEnd
									{
										OFFSET -2.84518 0.00000 0.00000
										CHANNELS 3 Xrotation Yrotation Zrotation
										End Site
										{
											OFFSET -2.84518 0.00000 0.00000
										}
									}
									JOINT RightHandThumb1
									{
										OFFSET -1.13807 -1.89679 -0.75871
										CHANNELS 3 Yrotation Xrotation Zrotation
										End Site
										{
											OFFSET -2.74823 -0.73639 0.00000
										}
									}
								}
							}
						}
					}
					JOINT LeftShoulder
					{
						OFFSET 1.18875 -1.98124 6.41925
						CHANNELS 3 Xrotation Yrotation Zrotation
						JOINT LeftArm
						{
							OFFSET 5.90412 0.00000 0.00000
							CHANNELS 3 Xrotation Yrotation Zrotation
							JOINT LeftForeArm
							{
								OFFSET 11.94674 0.00000 0.00000
								CHANNELS 3 Xrotation Yrotation Zrotation
								JOINT LeftHand
								{
									OFFSET 10.17720 0.00000 0.00000
									CHANNELS 3 Xrotation Yrotation Zrotation
									JOINT LeftHandEnd
									{
										OFFSET 2.84518 0.00000 0.00000
										CHANNELS 3 Xrotation Yrotation Zrotation
										End Site
										{
											OFFSET 2.84518 0.00000 0.00000
										}
									}
									JOINT LeftHandThumb1
									{
										OFFSET 1.13807 -1.89679 -0.75871
										CHANNELS 3 Yrotation Xrotation Zrotation
										End Site
										{
											OFFSET 2.74823 -0.73639 0.00000
										}
									}
								}
							}
						}
					}
				}
			}
		}
	}
	JOINT RightUpLeg
	{
		OFFSET -3.52662 0.00000 -1.03025
		CHANNELS 3 Xrotation Yrotation Zrotation
		JOINT RightLeg
		{
			OFFSET 0.00001 0.00000 -17.80159
			CHANNELS 3 Xrotation Yrotation Zrotation
			JOINT RightFoot
			{
				OFFSET 0.00001 0.00000 -16.85992
				CHANNELS 3 Xrotation Yrotation Zrotation
				JOINT RightToeBase
				{
					OFFSET 0.00000 -5.42953 -1.97619
					CHANNELS 3 Xrotation Yrotation Zrotation
					End Site
					{
						OFFSET 0.00000 -2.85300 -0.00000
					}
				}
			}
		}
	}
	JOINT LeftUpLeg
	{
		OFFSET 3.52662 0.00000 -1.03025
		CHANNELS 3 Xrotation Yrotation Zrotation
		JOINT LeftLeg
		{
			OFFSET 0.00001 0.00000 -17.80159
			CHANNELS 3 Xrotation Yrotation Zrotation
			JOINT LeftFoot
			{
				OFFSET 0.00001 0.00000 -16.85992
				CHANNELS 3 Xrotation Yrotation Zrotation
				JOINT LeftToeBase
				{
					OFFSET 0.00000 -5.42953 -1.97619
					CHANNELS 3 Xrotation Yrotation Zrotation
					End Site
					{
						OFFSET 0.00000 -2.85300 -0.00000
					}
				}
			}
		}
	}
}
MOTION
Frames: 10
Frame Time: 0.008342
 0.6642 -7.4536 38.0377 2.7982 1.3971 -178.1953 -0.7793 -1.6881 -0.9018 -0.4573 0.5190 -0.1909 3.4311 -8.5974 -4.5044 1.5579 -0.7863 1.3053 11.3702 -3.1590 -7.2100 4.3062 1.9051 -6.6945 10.2090 -30.3242 -2.2360 -9.5233 -31.0984 12.0779 -0.0001 0.0001 104.0137 50.4332 51.7926 15.2295 0.0000 0.0000 -0.0000 0.0000 0.0000 -0.0000 13.5372 14.2373 -8.3131 41.0845 38.2675 -41.8515 -0.0000 -0.0000 -29.7982 -6.7636 -11.7961 -1.0009 -0.0000 -0.0000 0.0000 -0.0000 -0.0000 0.0000 2.0810 3.8283 -36.8178 13.4594 0.0000 0.0000 -14.2541 -3.1263 2.2648 1.8347 0.0000 0.0000 1.8088 -2.3051 9.5663 13.6367 0.0000 0.0000 -11.3268 5.0435 5.6612 -0.5762 0.0000 -0.0000
 0.6759 -7.4547 38.0370 2.7950 1.3999 -178.2866 -0.7696 -1.7399 -0.9023 -0.4538 0.4937 -0.1886 3.4893 -8.6330 -4.4597 1.5683 -0.7927 1.3181 11.2908 -3.0956 -7.1627 4.2714 1.9411 -6.7237 10.3565 -30.3439 -2.1103 -9.3284 -30.9649 12.1788 -0.0001 0.0001 104.1463 50.8276 51.3816 15.9588 0.0000 -0.0000 0.0000 -0.0000 0.0000 0.0000 13.4994 14.2388 -8.3379 41.1343 38.2513 -41.9765 -0.0000 -0.0000 -29.7905 -6.7335 -11.7639 -1.0074 -0.0000 -0.0000 0.0000 -0.0000 0.0000 -0.0000 2.0464 3.8258 -36.7245 13.4953 0.0000 0.0000 -14.2764 -3.1124 2.2595 1.8426 0.0000 0.0000 1.8010 -2.3127 9.5983 13.6634 0.0000 0.0000 -11.3375 5.0412 5.7162 -0.5786 0.0000 -0.0000
 0.6880 -7.4572 38.0359 2.7695 1.3984 -178.3664 -0.7804 -1.7974 -0.8988 -0.4588 0.4862 -0.1937 3.5619 -8.6862 -4.4047 1.5750 -0.7956 1.3253 11.2029 -3.0303 -7.1161 4.2329 1.9729 -6.7593 10.5058 -30.3647 -1.9739 -9.3352 -30.9505 12.1635 -0.0001 0.0001 104.2490 50.9648 51.1890 16.3494 0.0000 0.0000 0.0000 -0.0000 0.0000 -0.0000 13.4592 14.2496 -8.3622 41.1922 38.2108 -42.1114 -0.0000 -0.0000 -29.7787 -6.6840 -11.7365 -1.0089 0.0000 -0.0000 -0.0000 0.0000 0.0000 -0.0000 1.9845 3.8190 -36.6271 13.5371 0.0000 0.0000 -14.3003 -3.0945 2.2396 1.8504 0.0000 0.0000 1.7595 -2.3257 9.6192 13.7039 0.0000 0.0000 -11.3539 5.0365 5.7722 -0.5801 0.0000 -0.0000
 0.7001 -7.4589 38.0348 2.7637 1.3994 -178.4293 -0.7762 -1.8414 -0.9000 -0.4553 0.4619 -0.1920 3.6278 -8.7272 -4.3615 1.5844 -0.8029 1.3384 11.1049 -2.9615 -7.0761 4.1958 1.9971 -6.7983 10.6434 -30.3787 -1.8427 -9.5353 -31.0685 12.0329 -0.0001 0.0001 104.3227 50.8342 51.2151 16.3992 0.0000 0.0000 -0.0000 -0.0000 -0.0000 -0.0000 13.4195 14.2562 -8.3939 41.2541 38.1673 -42.2547 -0.0000 -0.0000 -29.7695 -6.6119 -11.7185 -1.0081 -0.0000 -0.0000 -0.0000 -0.0000 0.0000 0.0000 1.9502 3.8127 -36.5570 13.5734 0.0000 0.0000 -14.3239 -3.0793 2.2291 1.8583 0.0000 0.0000 1.7396 -2.3370 9.6258 13.7396 0.0000 0.0000 -11.3681 5.0302 5.8268 -0.5813 0.0000 -0.0000
 0.7130 -7.4617 38.0335 2.7385 1.3918 -178.4756 -0.7919 -1.8919 -0.8989 -0.4579 0.4536 -0.1929 3.7027 -8.7858 -4.3194 1.5922 -0.8075 1.3470 10.9999 -2.8915 -7.0386 4.1562 2.0197 -6.8393 10.7740 -30.3924 -1.7089 -9.9299 -31.3054 11.7911 -0.0001 0.0001 104.3654 50.4340 51.4573 16.1102 -0.0000 0.0000 0.0000 0.0000 -0.0000 0.0000 13.3860 14.2676 -8.4298 41.3063 38.1150 -42.3937 -0.0000 -0.0000 -29.7700 -6.5184 -11.7117 -0.9997 -0.0000 -0.0000 0.0000 0.0000 0.0000 -0.0000 1.8966 3.7942 -36.4899 13.6066 0.0000 0.0000 -14.3444 -3.0611 2.2058 1.8655 0.0000 0.0000 1.6891 -2.3596 9.6231 13.7893 0.0000 0.0000 -11.3887 5.0222 5.8761 -0.5808 0.0000 -0.0000
 0.7257 -7.4637 38.0323 2.7279 1.3893 -178.5046 -0.7924 -1.9289 -0.8983 -0.4632 0.4385 -0.1951 3.7761 -8.8413 -4.2840 1.6012 -0.8136 1.3557 10.8910 -2.8189 -7.0070 4.1159 2.0384 -6.8787 10.8927 -30.4018 -1.5835 -10.4976 -31.6540 11.4520 -0.0001 0.0001 104.3831 49.7820 51.8884 15.4792 0.0000 -0.0000 0.0000 0.0000 -0.0000 0.0000 13.3646 14.2734 -8.4724 41.3468 38.0672 -42.5313 -0.0000 -0.0000 -29.7836 -6.4106 -11.7215 -0.9899 0.0000 -0.0000 0.0000 -0.0000 0.0000 -0.0000 1.8647 3.7797 -36.4491 13.6358 0.0000 0.0000 -14.3658 -3.0457 2.1914 1.8731 0.0000 0.0000 1.6559 -2.3770 9.6061 13.8314 0.0000 0.0000 -11.4048 5.0123 5.9242 -0.5797 0.0000 -0.0000
 0.7388 -7.4664 38.0310 2.7004 1.3822 -178.5149 -0.8152 -1.9662 -0.8968 -0.4635 0.4289 -0.1993 3.8476 -8.9013 -4.2645 1.6100 -0.8217 1.3695 10.7815 -2.7435 -6.9799 4.0715 2.0564 -6.9148 10.9807 -30.4076 -1.4728 -11.2060 -32.0953 11.0233 -0.0001 0.0001 104.3830 48.8987 52.4704 14.5213 0.0000 -0.0000 -0.0000 -0.0000 0.0000 -0.0000 13.3552 14.2848 -8.5212 41.3674 38.0187 -42.6513 -0.0000 -0.0000 -29.8195 -6.2978 -11.7484 -0.9765 -0.0000 0.0000 -0.0000 -0.0000 0.0000 0.0000 1.8180 3.7581 -36.4183 13.6614 0.0000 0.0000 -14.3848 -3.0291 2.1695 1.8795 0.0000 0.0000 1.5978 -2.4007 9.5766 13.8823 0.0000 0.0000 -11.4237 5.0007 5.9684 -0.5769 0.0000 -0.0000
 0.7522 -7.4682 38.0299 2.6832 1.3745 -178.5089 -0.8266 -1.9997 -0.8989 -0.4714 0.4226 -0.1960 3.9190 -8.9657 -4.2519 1.6186 -0.8259 1.3712 10.6750 -2.6732 -6.9574 4.0248 2.0765 -6.9423 11.0546 -30.4279 -1.3745 -12.0315 -32.5852 10.5408 -0.0001 0.0001 104.3704 47.8163 53.1628 13.2451 -0.0000 -0.0000 -0.0000 0.0000 -0.0000 0.0000 13.3567 14.2853 -8.5736 41.3669 37.9944 -42.7552 -0.0000 -0.0000 -29.8787 -6.1802 -11.7930 -0.9665 -0.0000 0.0000 -0.0000 0.0000 -0.0000 0.0000 1.7904 3.7318 -36.4085 13.6766 0.0000 0.0000 -14.3997 -3.0154 2.1523 1.8850 0.0000 0.0000 1.5531 -2.4269 9.5447 13.9256 0.0000 0.0000 -11.4385 4.9893 6.0005 -0.5733 0.0000 -0.0000
 0.7655 -7.4698 38.0289 2.6618 1.3673 -178.4855 -0.8445 -2.0261 -0.9004 -0.4778 0.4179 -0.1978 3.9851 -9.0314 -4.2555 1.6281 -0.8346 1.3777 10.5725 -2.5986 -6.9391 3.9768 2.0963 -6.9628 11.0844 -30.4440 -1.3062 -12.9173 -33.1188 10.0175 -0.0001 0.0001 104.3551 46.5939 53.9186 11.6808 0.0000 0.0000 -0.0000 0.0000 0.0000 0.0000 13.3746 14.2893 -8.6305 41.3447 37.9753 -42.8384 -0.0000 -0.0000 -29.9687 -6.0776 -11.8595 -0.9556 0.0000 0.0000 0.0000 0.0000 -0.0000 0.0000 1.7637 3.7044 -36.4155 13.6870 0.0000 0.0000 -14.4127 -3.0033 2.1356 1.8895 0.0000 0.0000 1.5033 -2.4531 9.5016 13.9670 0.0000 0.0000 -11.4506 4.9777 6.0285 -0.5689 0.0000 -0.0000
 0.7786 -7.4712 38.0281 2.6322 1.3637 -178.4487 -0.8742 -2.0455 -0.9010 -0.4829 0.4141 -0.2022 4.0462 -9.0930 -4.2728 1.6371 -0.8451 1.3828 10.4814 -2.5270 -6.9261 3.9241 2.1192 -6.9704 11.0833 -30.4719 -1.2534 -13.8372 -33.6492 9.4706 -0.0001 0.0001 104.3460 45.2725 54.6915 9.8822 -0.0000 -0.0000 0.0000 -0.0000 -0.0000 0.0000 13.4103 14.2884 -8.6935 41.2961 37.9767 -42.8965 -0.0000 -0.0000 -30.0866 -5.9951 -11.9468 -0.9575 0.0000 0.0000 0.0000 0.0000 -0.0000 -0.0000 1.7315 3.6807 -36.4336 13.6968 0.0000 0.0000 -14.4261 -2.9923 2.1178 1.8933 0.0000 0.0000 1.4466 -2.4752 9.4512 14.0022 0.0000 0.0000 -11.4575 4.9664 6.0522 -0.5640 0.0000 -0.0000
